<svg width="304" height="304" viewBox="0 0 304 304" fill="none" xmlns="http://www.w3.org/2000/svg">
<!-- Logo content shifted by 60px to add padding on left and top -->
<path d="M88.0008 163.633V60.7754H131.421C140.091 60.7754 146.972 62.3672 152.066 65.5509C157.16 68.6856 160.809 72.7264 163.013 77.6733C165.217 82.5713 166.319 87.6897 166.319 93.0285C166.319 96.7509 165.658 100.522 164.336 104.343C163.062 108.114 161.029 111.592 158.238 114.775C155.495 117.91 151.895 120.457 147.438 122.416C143.029 124.326 137.691 125.282 131.421 125.282H107.029V163.633H88.0008ZM107.029 107.355H132.303C135.829 107.355 138.646 106.645 140.752 105.224C142.907 103.755 144.45 101.918 145.38 99.7142C146.311 97.5101 146.776 95.2815 146.776 93.0285C146.776 90.9713 146.336 88.8407 145.454 86.6366C144.621 84.3836 143.152 82.4978 141.046 80.9795C138.94 79.4611 136.025 78.7019 132.303 78.7019H107.029V107.355Z" fill="#2C7A7B"/>
<path d="M200.776 303.224V200.367H270V218.441H219.805V241.069H249.707V259.143H219.805V285.004H270V303.224H200.776Z" fill="#2C7A7B"/>
<path fill-rule="evenodd" clip-rule="evenodd" d="M163.968 200.367H60.8175V218.735H145.601V303.224H163.968V218.735H145.601V207.714H163.968V200.367Z" fill="#2C7A7B" fill-opacity="0.3"/>
<path d="M163.968 218.735V207.714H145.601V218.735H163.968Z" fill="#2C7A7B" fill-opacity="0.3"/>
<path fill-rule="evenodd" clip-rule="evenodd" d="M200.703 163.633V156.286H219.07V145.265H303.266V163.633H200.703Z" fill="#2C7A7B" fill-opacity="0.3"/>
<path d="M200.703 60.7754V145.265H219.07V60.7754H200.703Z" fill="#2C7A7B" fill-opacity="0.3"/>
<path d="M200.703 145.265V156.286H219.07V145.265H200.703Z" fill="#2C7A7B" fill-opacity="0.3"/>
</svg>
